<svg xmlns="http://www.w3.org/2000/svg" width="1254" height="836" viewBox="0 0 1254 836">
<g>
<path d="M 256.21 412.75 C255.99,449.00 255.64,459.99 254.71,459.94 C251.20,459.77 239.59,455.95 235.82,453.73 C229.87,450.22 226.56,446.48 223.52,439.83 L 220.93 434.16 L 220.87 399.83 C220.81,365.70 220.83,365.46 223.30,358.71 C226.27,350.58 229.74,345.34 236.68,338.47 C249.18,326.11 266.81,321.45 285.30,325.62 C293.47,327.46 296.47,328.80 303.36,333.70 L 308.23 337.16 L 310.86 334.75 C317.47,328.70 331.34,323.99 342.44,324.02 C355.31,324.05 369.55,329.68 377.94,338.05 L 382.50 342.59 L 388.50 337.71 C402.11,326.63 419.28,322.25 436.47,325.47 C446.96,327.43 454.68,331.10 461.83,337.54 C471.38,346.12 476.04,355.22 478.02,369.16 C479.78,381.51 475.33,395.25 466.60,404.50 C466.17,404.95 465.78,405.37 465.42,405.75 C463.81,407.48 462.89,408.47 462.53,408.29 C462.04,408.06 462.49,405.87 463.53,400.81 C463.70,399.96 463.89,399.02 464.10,398.00 C467.87,379.37 457.23,361.66 440.08,358.02 C431.66,356.23 421.11,357.22 414.60,360.41 C408.19,363.54 401.58,370.00 398.15,376.50 L 395.50 381.50 L 394.50 459.50 L 391.50 459.29 C379.02,458.41 366.66,451.23 361.45,441.82 L 358.50 436.50 L 358.00 400.82 C357.52,366.76 357.41,365.02 355.44,362.38 C351.41,357.00 348.36,355.50 341.47,355.52 C334.59,355.54 331.56,357.03 327.56,362.38 C325.56,365.07 325.49,366.45 325.22,412.57 C325.00,449.93 324.68,460.00 323.68,460.00 C322.99,460.00 319.74,459.30 316.46,458.45 C308.44,456.36 298.90,450.87 295.47,446.37 C289.79,438.92 289.58,437.44 289.02,399.82 C288.52,366.79 288.40,365.01 286.44,362.38 C282.56,357.19 279.35,355.53 273.19,355.53 C266.78,355.53 261.52,358.10 258.35,362.77 C256.62,365.32 256.48,368.67 256.21,412.75 ZM 899.48 388.35 C885.82,393.01 869.91,387.35 863.75,375.64 C860.76,369.96 860.74,360.08 863.70,354.50 C868.65,345.15 876.36,341.05 889.00,341.03 C895.85,341.02 898.48,341.48 902.57,343.38 C913.67,348.55 918.50,360.34 914.89,373.50 C913.43,378.86 905.82,386.19 899.48,388.35 ZM 583.00 372.80 L 583.00 389.00 L 578.17 389.00 C575.51,389.00 573.03,388.70 572.67,388.33 C572.30,387.97 572.00,377.37 572.00,364.79 L 572.00 341.92 L 580.16 342.21 L 588.32 342.50 L 594.35 356.76 C597.67,364.60 600.70,370.67 601.08,370.26 C601.47,369.84 603.21,366.12 604.95,362.00 C606.69,357.88 609.33,351.70 610.81,348.28 L 613.50 342.05 L 628.00 342.00 L 628.00 389.10 L 622.75 388.80 L 617.50 388.50 L 616.50 357.50 L 614.67 362.00 C613.66,364.48 611.01,370.66 608.78,375.75 L 604.71 385.00 L 600.32 385.00 C600.07,385.00 599.84,385.00 599.62,385.00 C598.62,385.02 597.87,385.02 597.21,384.79 C595.11,384.02 593.91,380.75 588.32,367.00 C586.42,362.33 584.44,358.07 583.93,357.55 C583.36,356.96 583.00,362.77 583.00,372.80 ZM 937.50 355.58 L 936.95 389.00 L 927.00 389.00 L 927.00 342.00 L 939.64 342.00 L 949.57 354.65 C955.03,361.61 960.50,368.48 961.72,369.90 L 963.94 372.50 L 964.00 342.00 L 974.00 342.00 L 974.00 389.00 L 968.69 389.00 C963.65,389.00 963.23,388.79 960.44,385.01 C958.82,382.82 953.00,375.30 947.50,368.30 ZM 750.00 384.00 L 748.25 388.50 L 742.62 388.80 C739.53,388.96 737.00,388.74 737.00,388.30 C737.00,387.43 743.71,371.49 747.44,363.50 C748.73,360.75 751.33,354.90 753.23,350.50 L 756.68 342.50 L 763.84 342.21 C767.92,342.04 771.00,342.32 771.00,342.87 C771.00,343.39 775.28,353.59 780.50,365.53 C785.72,377.47 790.00,387.63 790.00,388.12 C790.00,388.60 787.35,389.00 784.12,389.00 C777.81,389.00 777.64,388.85 775.49,381.22 C774.86,378.99 774.58,378.94 763.30,379.22 L 751.76 379.50 ZM 674.07 387.25 C669.71,389.46 667.35,389.99 662.07,389.93 C654.66,389.85 648.72,388.02 645.20,384.73 C640.42,380.27 640.00,378.23 640.00,359.55 L 640.00 342.00 L 650.00 342.00 L 650.01 355.75 C650.01,363.31 650.49,371.21 651.07,373.30 C652.90,379.89 661.23,383.00 667.85,379.57 C672.31,377.27 673.00,374.32 673.00,357.45 L 673.00 342.00 L 684.00 342.00 L 684.00 359.85 C684.00,376.69 683.87,377.90 681.75,381.10 C680.44,383.08 677.22,385.65 674.07,387.25 ZM 599.49 438.50 C596.40,440.05 593.03,440.57 584.50,440.83 C578.44,441.01 573.16,440.82 572.75,440.41 C572.34,440.00 572.00,432.32 572.00,423.33 L 572.00 407.00 L 584.27 407.00 C598.14,407.00 601.78,408.19 605.75,414.00 C607.49,416.54 608.00,418.71 608.00,423.50 C608.00,431.03 605.46,435.50 599.49,438.50 ZM 706.22 428.75 L 705.94 441.00 L 698.00 441.00 L 698.00 407.00 L 710.74 407.00 L 715.18 416.94 L 719.63 426.88 L 724.23 416.94 L 728.83 407.00 L 741.00 407.00 L 741.00 441.00 L 733.06 441.00 L 732.78 428.75 L 732.50 416.50 L 728.26 425.50 C723.99,434.58 722.97,436.79 721.39,437.33 C720.89,437.50 720.32,437.50 719.57,437.50 L 719.43 437.50 C716.28,437.50 716.27,437.47 710.22,424.50 L 706.50 416.50 ZM 892.00 429.00 L 892.00 441.00 L 884.00 441.00 L 884.00 407.00 L 896.25 407.00 C906.57,407.01 909.00,407.31 911.65,408.93 C917.50,412.49 917.35,421.68 911.39,425.20 L 907.99 427.21 L 912.18 432.35 C914.49,435.18 917.04,438.29 917.85,439.25 C919.21,440.88 918.96,441.00 914.32,441.00 C909.40,441.00 909.25,440.91 904.66,435.00 C900.35,429.44 899.71,429.00 896.00,429.00 ZM 664.00 429.00 L 664.00 441.00 L 656.00 441.00 L 656.00 406.84 L 669.08 407.17 L 682.17 407.50 L 685.08 410.77 C689.33,415.52 689.03,419.33 684.04,424.08 L 680.08 427.84 L 685.15 434.17 L 690.21 440.50 L 686.00 440.81 C681.23,441.17 679.48,439.98 674.84,433.25 C672.22,429.46 671.47,429.00 667.95,429.00 ZM 521.00 350.00 L 521.00 369.79 L 510.00 369.71 L 510.00 350.00 L 493.28 350.00 L 493.39 345.75 C493.40,345.31 493.40,344.91 493.40,344.56 C493.40,343.51 493.39,342.82 493.72,342.35 C494.47,341.27 496.97,341.38 505.25,341.14 L 510.00 341.00 L 510.00 322.00 L 513.25 321.99 C515.04,321.98 517.51,321.70 518.75,321.37 C520.97,320.77 521.00,320.88 521.00,330.77 C521.00,331.18 521.00,331.59 521.00,331.97 C520.99,336.90 520.99,339.40 522.24,340.67 C523.53,341.98 526.15,341.98 531.48,341.99 C531.89,341.99 532.31,341.99 532.75,341.99 L 540.00 342.00 L 540.00 350.00 ZM 880.92 378.73 C883.18,380.25 885.77,381.00 888.75,381.00 C898.21,381.00 905.00,374.62 905.00,365.72 C905.00,360.04 903.24,356.22 898.96,352.62 C896.29,350.38 894.90,350.00 889.29,350.00 C878.35,350.00 873.00,355.03 873.00,365.32 C873.00,370.47 875.87,375.32 880.92,378.73 ZM 721.00 350.00 L 721.00 389.00 L 710.00 389.00 L 710.00 350.00 L 693.00 350.00 L 693.00 342.00 L 737.00 342.00 L 737.00 350.00 ZM 813.50 350.50 L 812.96 389.00 L 803.00 389.00 L 803.00 350.00 L 787.00 350.00 L 787.00 342.00 L 831.00 342.00 L 831.00 349.92 ZM 758.88 437.00 C757.72,440.87 757.54,441.00 753.34,441.00 C750.95,441.00 749.00,440.66 749.01,440.25 C749.01,439.84 752.29,432.30 756.28,423.50 L 763.55 407.50 L 769.14 407.20 C774.62,406.91 774.74,406.97 776.02,410.20 C777.53,414.06 780.24,420.12 785.86,432.25 L 789.91 441.00 L 785.37 441.00 C781.01,441.00 780.78,440.85 779.27,437.00 L 777.70 433.00 L 760.08 433.00 ZM 846.38 437.00 C844.86,440.81 844.57,441.00 840.44,441.00 L 836.10 441.00 L 841.15 429.75 C843.93,423.56 847.34,415.91 848.73,412.75 L 851.26 407.00 L 856.68 407.00 C862.01,407.00 862.13,407.07 863.63,410.75 C864.47,412.81 867.37,419.29 870.06,425.14 C870.56,426.21 871.02,427.21 871.45,428.14 C875.51,436.93 876.81,439.74 876.00,440.62 C875.62,441.04 874.77,441.03 873.53,441.01 C873.25,441.00 872.95,441.00 872.63,441.00 C868.55,441.00 868.20,440.77 866.50,437.00 L 864.70 433.00 L 847.98 433.00 ZM 647.00 435.00 L 647.00 441.00 L 617.00 441.00 L 617.00 407.00 L 647.00 407.00 L 647.00 409.47 C647.00,411.92 646.93,411.93 636.25,412.22 L 625.50 412.50 L 625.50 420.50 L 634.25 420.79 C642.80,421.07 643.00,421.13 643.00,423.54 C643.00,425.97 642.90,426.00 634.00,426.00 L 625.00 426.00 L 625.00 435.00 ZM 956.00 435.00 L 956.00 441.00 L 927.00 441.00 L 927.00 407.00 L 956.00 407.00 L 956.00 412.00 L 934.89 412.00 L 935.50 420.50 L 944.25 420.79 C952.80,421.07 953.00,421.13 953.00,423.54 C953.00,425.97 952.90,426.00 944.00,426.00 L 935.00 426.00 L 935.00 435.00 L 956.00 435.00 ZM 822.22 440.96 C808.08,444.88 794.00,436.42 794.00,424.01 C794.00,418.37 797.25,412.53 802.20,409.25 C805.93,406.78 807.24,406.50 814.93,406.51 C821.61,406.52 824.21,406.95 826.72,408.46 C830.80,410.91 831.35,412.38 828.98,414.52 C827.20,416.13 826.86,416.11 822.73,414.11 C816.10,410.90 810.18,411.62 805.27,416.23 C800.45,420.74 801.90,430.35 807.87,433.43 C812.32,435.74 820.52,435.46 824.72,432.86 C828.17,430.73 828.18,430.73 830.16,432.71 C832.14,434.70 832.14,434.71 829.04,437.31 C827.33,438.75 824.26,440.39 822.22,440.96 ZM 852.00 342.00 L 852.00 389.00 L 846.67 389.00 C843.73,389.00 841.03,388.70 840.67,388.33 C840.30,387.97 840.00,377.39 840.00,364.83 L 840.00 342.00 ZM 581.00 413.00 L 581.00 435.23 L 587.47 434.82 C592.53,434.50 594.48,433.90 596.45,432.04 C601.02,427.76 601.04,419.95 596.50,415.41 C594.44,413.35 593.13,413.00 587.55,413.00 ZM 892.67 423.33 C893.70,424.36 899.35,424.12 902.87,422.89 C907.16,421.40 908.61,418.58 906.63,415.56 C905.43,413.72 903.95,413.16 899.31,412.75 C896.12,412.48 893.16,412.45 892.75,412.68 C891.82,413.22 891.75,422.42 892.67,423.33 ZM 664.75 423.42 C665.95,424.63 675.32,423.02 677.25,421.28 C679.29,419.43 679.55,415.68 677.75,414.26 C677.06,413.71 673.69,413.02 670.25,412.73 L 664.00 412.19 L 664.00 417.43 C664.00,420.31 664.34,423.01 664.75,423.42 ZM 756.65 370.24 C757.18,371.11 769.38,371.29 770.22,370.44 C770.73,369.94 764.72,354.38 763.57,353.24 C763.30,352.96 762.62,353.81 762.08,355.12 C757.74,365.43 756.25,369.59 756.65,370.24 ZM 764.00 425.60 C764.00,426.63 765.46,427.00 769.56,427.00 C772.62,427.00 774.91,426.66 774.66,426.25 C774.40,425.84 773.01,422.82 771.56,419.54 L 768.92 413.57 L 766.46 418.89 C765.11,421.81 764.00,424.83 764.00,425.60 ZM 851.28 425.75 C850.92,426.66 852.31,427.00 856.39,427.00 C859.48,427.00 862.00,426.80 862.00,426.57 C862.00,424.84 856.55,414.07 856.00,414.70 C855.61,415.14 854.51,417.52 853.54,420.00 C852.57,422.48 851.56,425.06 851.28,425.75 Z" fill="rgb(58,106,78)"/>
<path d="M 446.01 458.00 C435.57,460.32 425.19,460.66 424.44,458.70 C424.17,457.99 424.07,451.13 424.22,443.45 L 424.50 429.50 L 431.65 428.86 C445.49,427.62 455.47,422.77 466.08,412.11 C478.16,399.99 482.63,388.10 481.73,370.51 C481.14,359.02 478.94,351.80 473.63,343.91 C471.68,341.03 470.32,338.29 470.60,337.83 C471.62,336.19 479.31,341.66 486.07,348.85 C493.58,356.81 497.93,364.68 500.61,375.11 C503.04,384.56 502.10,403.16 498.73,412.00 C489.70,435.77 470.46,452.55 446.01,458.00 Z" fill="rgb(242,131,53)"/>

</g>
</svg>